<?xml version="1.0" encoding="utf-8"?>
<svg version="1.1" id="logo" xmlns="http://www.w3.org/2000/svg" xmlns:xlink="http://www.w3.org/1999/xlink" x="0px" y="0px"
	 viewBox="0 0 612 371" style="enable-background:new 0 0 612 371;" xml:space="preserve">

	<style type="text/css">
		@keyframes blue {
			0%, 100% { transform: translate(0, 0); }
			25%, 75% { transform: translate(1rem, .5rem); }
		}

		@keyframes grey {
			0%, 100% { transform: translate(0);	}
			25%, 75% { transform: translate(-1rem, -.5rem);	}
		}

		.blue-v{fill:#0097A6; animation-name: blue; animation-duration: 1.5s; animation-iteration-count: infinite; animation-fill-mode: both;}
		.grey-a{fill:#757575; animation-name: grey; animation-duration: 1.5s; animation-iteration-count: infinite; animation-fill-mode: both;}
	</style>
	<g>
		<path class="blue-v" d="M211.7,14.7c1.5-0.1,2.9-0.2,4.4-0.2c125.6,0,251.2,0,376.8,0c1.5,0,2.9,0,5.1,0c-0.8,1.6-1.4,2.7-2,3.8
			c-47.5,82.3-95,164.6-142.6,246.9c-15.5,26.9-31,53.8-46.6,80.7c-0.7,1.1-1.4,2.2-2.1,3.3c-9-15.3-18-30.6-26.9-46
			c-15.8-27.3-31.5-54.7-47.3-82c-16.8-29.2-33.8-58.3-50.6-87.5c-15.9-27.4-31.7-54.9-47.5-82.4C225.5,39.1,218.7,26.9,211.7,14.7z"/>

		<path class="grey-a" d="M211.7,14.7c6.9,12.2,13.8,24.5,20.8,36.7c15.8,27.5,31.6,54.9,47.5,82.4c16.8,29.2,33.8,58.3,50.6,87.5
			c15.8,27.3,31.5,54.7,47.3,82c8.9,15.4,17.9,30.7,26.9,46c-1,0.5-2.1,1.3-3.1,1.3c-29.9,0.1-59.8,0.1-89.6,0
			c-1.3,0-3.2-1.1-3.9-2.3c-12.7-21.8-25.3-43.8-37.9-65.6c-13.7-23.7-27.6-47.4-41.3-71.1c-5.8-10-11.4-20.1-17.5-30.8
			c-4.3,7.4-8.2,14.2-12.1,20.9c-10,17.3-20,34.6-30,52c-9.2,16-18.4,32-27.6,48c-9.2,15.9-18.4,31.9-27.8,47.7
			c-0.5,0.8-2.3,1.3-3.6,1.3c-21.8,0.1-43.6,0.1-65.3,0.1c-9,0-18,0-27.7,0c3.8-6.7,7.2-12.7,10.7-18.7
			C78.7,243.9,129.5,156,180.3,68c9.4-16.3,18.8-32.7,28.3-49C209.5,17.5,210.7,16.1,211.7,14.7z"/>
	</g>
</svg>
